<?xml version="1.0" encoding="utf-8"?>
<!-- Generator: Adobe Illustrator 19.0.0, SVG Export Plug-In . SVG Version: 6.00 Build 0)  -->
<svg version="1.1"
	 id="svg3398" xmlns:dc="http://purl.org/dc/elements/1.1/" xmlns:cc="http://creativecommons.org/ns#" xmlns:rdf="http://www.w3.org/1999/02/22-rdf-syntax-ns#" xmlns:svg="http://www.w3.org/2000/svg" xmlns:sodipodi="http://sodipodi.sourceforge.net/DTD/sodipodi-0.dtd" xmlns:inkscape="http://www.inkscape.org/namespaces/inkscape" inkscape:output_extension="org.inkscape.output.svg.inkscape" sodipodi:docname="Tractor.svg" inkscape:version="0.47 r22583" sodipodi:version="0.32"
	 xmlns="http://www.w3.org/2000/svg" xmlns:xlink="http://www.w3.org/1999/xlink" x="0px" y="0px"
	 viewBox="-448.5 239.9 157.4 150.8" style="enable-background:new -448.5 239.9 157.4 150.8;" xml:space="preserve">
<style type="text/css">
	.st0{fill:#FFFFFF;}
</style>
<defs>
	
	
		<inkscape:perspective  inkscape:vp_z="744.09448 : 526.18109 : 1" inkscape:vp_x="0 : 526.18109 : 1" sodipodi:type="inkscape:persp3d" inkscape:vp_y="0 : 1000 : 0" id="perspective3405" inkscape:persp3d-origin="372.04724 : 350.78739 : 1">
		</inkscape:perspective>
</defs>
<sodipodi:namedview  inkscape:cy="-66.497617" inkscape:cx="395.87335" inkscape:zoom="0.57794118" showgrid="false" pagecolor="#ffffff" bordercolor="#666666" borderopacity="1.0" objecttolerance="10.0" gridtolerance="10.0" guidetolerance="10.0" id="base" inkscape:window-maximized="1" inkscape:current-layer="svg3398" inkscape:window-y="92" inkscape:window-x="1276" inkscape:pageopacity="0.0" inkscape:pageshadow="2" inkscape:window-width="1280" inkscape:window-height="1002">
	</sodipodi:namedview>
<path id="path3729" class="st0" d="M-377,239.9c-0.4,0-0.7,0.1-1.1,0.3c-1.6,0.7-1.7,1.7-2.2,21.7c-0.3,14.9-0.4,16.5-1.3,17.3
	c-0.5,0.5-1.1,1.6-1.2,2.4c-0.4,2-4.9,16.3-5.3,16.7c-0.2,0.2-5.8-0.1-12.4-0.7l-12.1-1.1l-10,2.6c-5.5,1.4-10.1,2.8-10.3,3
	c-0.2,0.2-1.2,2.5-2.2,5.1l-1.8,4.7l3,9.9c1.7,5.5,3,10,3,10.1s-1.8,0.2-4,0.2h-4l-2.1,2.2c-1.9,2-2.2,2.6-2.8,6.3
	c-0.5,2.8-0.5,4.6-0.2,5.8c0.4,1.3,0.3,1.9-0.3,2.6c-1.5,1.7-3.4,6.5-4,10.2c-0.8,5.1,0,10.6,2.2,15.3c3.1,6.6,6.4,8.8,14.1,9.3
	c4.1,0.3,4.9,0.2,7-0.8c5.5-2.7,9.3-10.1,9.3-18.4l0-3.7l9.2,0c5.1,0,9.5,0.2,9.8,0.4c0.3,0.2,0.6,2.5,0.6,5
	c0.3,13.4,6.5,23.2,15.2,24.3c1.4,0.2,4.8,0.2,7.5,0.2c6-0.2,9.2-1.5,12.4-5.1c2.5-2.8,3.8-5.2,5.3-9.8c0.9-2.8,1.4-3.4,2.6-3.8
	c2.6-0.8,4.8-2.8,4.8-4.3c0-0.9,0.3-1.4,1-1.6c0.6-0.1,1-0.5,1-0.7s0.7-0.4,1.5-0.4c1.3,0,1.6,0.3,2,1.7c0.4,1.6,0.6,1.7,3.2,1.8
	c2.1,0.1,2.7,0,2.5-0.5c-1-2.6-1-3,0-3c0.5,0,1.7,0.3,2.5,0.8c1.2,0.6,1.5,1,1.3,1.9c-0.3,1.7,2.7,7,3.9,6.7
	c0.7-0.2,0.9,0.1,0.9,1.2c0,1.3,0.4,1.6,3.3,3.1c5.1,2.5,10.8,3.9,15.2,3.5c6.7-0.5,13-3.9,13-6.9c0-2.8,0.6-3.8,1.8-3.5
	c1.5,0.4,2-0.9,1.5-3.8c-0.2-1.2-0.1-2,0.1-2c0.3,0,0.8-0.6,1.1-1.3c0.5-1.1,0.4-1.6-0.3-3c-1.1-1.9-1-3.5,0.4-4.7
	c1.2-1.1,1.2-1.9,0.1-3.8c-0.9-1.5-0.9-1.5,0.7-4.7c0.1-0.2-0.4-1-1.1-1.9l-1.3-1.5l1.1-1.4c1.2-1.6,1.1-2.9-0.8-5.6
	c-1.1-1.6-1.2-1.9-0.5-2.6c0.6-0.6,0.6-0.9-0.4-2.2c-0.6-0.8-1.6-1.6-2.3-1.9c-1-0.4-1.2-0.7-0.9-2.2c0.2-1.5,0.1-1.9-1.5-3.2
	c-1-0.9-1.9-2.2-2.1-3.1c-0.3-1.5-0.5-1.6-4-2.2c-1.5-0.3-3.2-0.6-4.4-0.9c0.4-1.5,0.4-5.6-0.1-6.1c-0.4-0.4-0.3-0.7,0.3-1.2
	c0.9-0.8,1-2.2,0.2-3c-0.9-0.9-3.4-0.7-3.9,0.3c-0.3,0.5-0.6,0.8-0.7,0.6c-0.3-0.3-4.5-20.2-4.5-21.1c0-0.3,0.3-0.4,0.7-0.3
	c0.8,0.3,1-0.1,1.6-3.1c0.3-1.6,0.3-1.7-2.6-3c-1.6-0.7-3.5-1.9-4.1-2.6c-0.8-1-1.4-1.3-2.4-1.1c-0.9,0.2-1.3,0-1.3-0.5
	c0-0.5-3.3-1.9-11.2-4.6l-11.2-3.9l-12.9,3.2c-7.1,1.7-13.1,3.2-13.4,3.2c-0.5,0,0-19.4,0.7-29c0.3-3.4,0.3-6.3,0.2-6.6
	C-374.5,240.3-375.8,239.8-377,239.9L-377,239.9z M-349.7,277.3c0.1,0.1-1.4,14.4-2.2,20.2l-0.3,2.2l-1.1-1.7
	c-1.8-2.6-5.2-4.2-8.7-3.9c-3.4,0.2-5.1,1.3-7,4.2c-1.1,1.6-1.5,1.9-3.2,1.9c-1.4,0-2.1-0.3-2.5-1c-0.6-1.1-0.7-16.5-0.1-16.5
	c0.2,0,5.9-1.3,12.7-2.8S-349.8,277.2-349.7,277.3z M-343.3,278.3c0.1-0.1,13.3,4.9,13.5,5.1c0.1,0.1,2.2,18.7,2.2,19.6
	c0,1,0,1-9.4-1.4l-8.1-2.1v-2.1C-345,295.2-343.5,278.5-343.3,278.3z M-325.3,286c0.5,0,3.3,0.7,3.8,1.1c0.2,0.1,4.3,19.7,4.3,20.5
	c0,0.5-0.3,0.8-0.6,0.8c-0.9,0-4.8-1.8-5.2-2.4C-323.5,305.3-325.6,286.3-325.3,286C-325.3,286-325.3,286-325.3,286z"/>
</svg>
